<svg height="933.333" version="1" viewBox="0 0 700.000000 700.000000" width="933.333" xmlns="http://www.w3.org/2000/svg"><path d="M326.5.6c-45 4.5-72.1 10.7-107 24.6-102.8 40.9-182 131.6-208.9 239.3C3 294.8.5 316.3.5 350s2.5 55.2 10.1 85.5c20.9 84 73.2 157.7 145.9 205.9 48.2 32 95.9 49.3 156.5 56.8 13.8 1.7 60.2 1.7 74 0 50.1-6.2 94.2-20.2 133.3-42.3 84.7-47.8 146-127.8 169.1-220.4 7.6-30.3 10.1-51.8 10.1-85.5 0-48.2-7.3-86.7-24.7-130.4-22.1-55.5-60.9-107.3-108.3-144.5-51.7-40.5-107.6-63.8-175-72.7-10.4-1.4-56.4-2.7-65-1.8zm-194 297.5c5.7 1.4 12.6 7.5 15.5 13.5 2.7 5.5 2.4 12.4-.9 19.4-1.2 2.5-1.9 3.7-1.6 2.6.9-3.1-1.4-9.2-4.6-12.4-7.5-7.3-18.5-5.7-22.9 3.3-8.4 17.3 6.3 40.5 31.1 49.2 13.7 4.7 27.6 4.2 39.1-1.6 8.8-4.5 14.1-9.4 22.6-21 10-13.6 17.3-21.7 26.1-29.1 17.5-14.7 36.8-22 57.7-22 25.3 0 44.1 9.4 52 26 1.6 3.3 3.1 6 3.4 6 .3 0 1.9-2.7 3.4-6 5.4-11.3 16.1-19.6 30.3-23.5 8.3-2.3 25.6-3 35-1.5 13.9 2.2 28.9 8.9 40.8 18 8.1 6.2 20.5 19.6 29.3 31.6 8.9 12.1 14.1 17 23 21.5 7.6 3.8 15.1 5.3 24.2 4.6 25.2-1.7 48.1-21.1 48.2-40.8 0-10.1-3.8-16.9-10.7-18.8-3.8-1-9.2 0-13.1 2.6-3.2 2.1-6.7 9.7-6 13.1.3 1.8-.2 1.1-1.6-1.8-4.7-10-3.1-19.1 4.8-27.3 15.5-15.9 45.7-.6 52.9 26.8 5.5 21.5-4.5 51.6-24 72.4-18.5 19.5-42.7 31.4-77.5 37.8-7.4 1.3-15.1 1.7-34.5 1.7-27.1.1-34.2-.9-53.1-6.9-27.3-8.8-58.6-32.6-67.6-51.4-1.8-3.9-3.5-7-3.8-7-.3 0-2.1 3.3-4 7.2-2.7 5.7-5.7 9.5-14 17.8-20 20.1-41.3 31.5-71.4 38.2-9 1.9-12.9 2.2-35.1 2.1-26 0-32.9-.7-52-5.5-16.3-4.1-35.2-13-47.5-22.4-6.6-5.1-17.5-16.4-22-23-4.4-6.3-11.5-21.7-13.5-29-2.2-8.1-3-22.7-1.6-29.6 3.4-16.5 15.8-30.7 30-34.5 5.9-1.6 8.2-1.7 13.6-.3z"/></svg>